<?xml version="1.0" encoding="UTF-8"?>
<svg xmlns="http://www.w3.org/2000/svg" xmlns:xlink="http://www.w3.org/1999/xlink" width="180px" height="55px" viewBox="0 0 180 55" version="1.1">
<g id="surface1">
<path style=" stroke:none;fill-rule:nonzero;fill:rgb(7.843137%,11.372549%,21.960784%);fill-opacity:1;" d="M 106.898438 27 C 106.800781 19.699219 106.800781 12.5 106.699219 5.199219 C 106.699219 4.699219 106.800781 4.300781 107.398438 4.300781 C 111.800781 4.101562 116.101562 3.699219 120.5 3.699219 C 126.601562 3.699219 131.699219 6.101562 135.601562 10.898438 C 137.398438 13.101562 138.5 15.800781 139.300781 18.5 C 140.398438 22.699219 140.5 27.101562 140 31.398438 C 139.5 36.398438 137.898438 41.101562 134.300781 44.800781 C 132 47.199219 129.199219 48.800781 126 49.699219 C 122.601562 50.601562 119.199219 50.601562 115.699219 50.398438 C 113.199219 50.199219 110.800781 50.101562 108.300781 50 C 107.101562 50 107 49.898438 107 48.699219 C 107 42.199219 106.898438 35.800781 106.898438 29.300781 C 106.898438 28.601562 106.898438 27.800781 106.898438 27 Z M 110.199219 23.601562 C 110.300781 29.300781 110.101562 35.101562 110.699219 40.800781 C 110.898438 42.398438 111.101562 44 111.398438 45.5 C 111.5 46.101562 111.898438 46.5 112.5 46.699219 C 113 46.800781 113.398438 46.898438 113.898438 47 C 117.398438 47.699219 120.898438 47.699219 124.300781 46.898438 C 128.199219 46 131.300781 43.800781 133.5 40.398438 C 135.398438 37.398438 136.101562 34.101562 136.398438 30.699219 C 136.699219 27.398438 136.601562 24.101562 135.898438 20.800781 C 135.199219 17.5 133.800781 14.5 131.601562 11.898438 C 129.300781 9.300781 126.398438 7.898438 123.101562 7.398438 C 120.699219 7 118.199219 7.199219 115.800781 7.199219 C 114.300781 7.199219 112.800781 7.601562 111.5 8.300781 C 111.101562 8.5 110.898438 8.800781 110.800781 9.300781 C 110.699219 10.101562 110.601562 11 110.601562 11.800781 C 110.398438 15.601562 110.300781 19.601562 110.199219 23.601562 Z M 110.199219 23.601562 "/>
<path style=" stroke:none;fill-rule:nonzero;fill:rgb(7.843137%,11.372549%,21.960784%);fill-opacity:1;" d="M 77.199219 19.699219 C 76.699219 18.300781 76.398438 16.898438 75.800781 15.601562 C 74.898438 13.5 73.699219 11.601562 71.898438 10.101562 C 69.699219 8.398438 67.199219 7.398438 64.5 7.199219 C 62.101562 7 59.699219 7 57.300781 7.601562 C 53.5 8.5 50.398438 10.398438 48 13.398438 C 46.300781 15.5 45.300781 17.898438 44.601562 20.5 C 43.800781 23.898438 43.800781 27.300781 44 30.800781 C 44.199219 33.398438 44.800781 35.800781 45.800781 38.101562 C 47.300781 41.398438 49.398438 44 52.601562 45.800781 C 54.601562 46.898438 56.699219 47.5 59 47.800781 C 61.300781 48 63.601562 48.101562 65.800781 47.699219 C 70.199219 46.898438 74 45.101562 77.199219 41.898438 C 77.398438 41.699219 77.699219 41.398438 77.898438 41.199219 C 78.101562 41.101562 78.5 41.101562 78.800781 41.101562 C 78.800781 41.300781 78.699219 41.5 78.699219 41.800781 C 78.398438 43.101562 78.101562 44.5 77.800781 45.800781 C 77.699219 46.300781 77.601562 46.800781 77.5 47.300781 C 77.398438 48 76.898438 48.5 76.199219 48.699219 C 73.898438 49.398438 71.601562 50 69.300781 50.601562 C 66.800781 51.300781 64.300781 51.5 61.699219 51.398438 C 60.101562 51.300781 58.398438 51.101562 56.800781 50.800781 C 54 50.300781 51.398438 49.199219 49.101562 47.601562 C 45.398438 45.199219 43 41.699219 41.601562 37.5 C 40.300781 33.5 39.898438 29.5 40.199219 25.300781 C 40.5 21 41.398438 16.898438 43.800781 13.300781 C 45.300781 10.898438 47.398438 9.101562 49.699219 7.5 C 51.199219 6.5 52.898438 5.800781 54.699219 5.199219 C 60 3.300781 65.300781 3.5 70.699219 4.601562 C 72.800781 5 74.800781 5.5 76.898438 6.101562 C 78.398438 6.5 78.398438 6.601562 78.398438 8.101562 C 78.398438 9.800781 78.398438 11.601562 78.398438 13.300781 C 78.300781 13.300781 78.5 13.300781 78.398438 13.300781 C 78.398438 15.398438 78.199219 17.5 78.199219 19.601562 "/>
<path style=" stroke:none;fill-rule:nonzero;fill:rgb(7.843137%,11.372549%,21.960784%);fill-opacity:1;" d="M 94 3.699219 C 94.199219 3.699219 94.398438 3.699219 94.699219 3.699219 C 97.398438 3.898438 100 4.101562 102.699219 4.300781 C 103.5 4.398438 103.5 4.398438 103.5 5.199219 C 103.5 16.699219 103.601562 28.199219 103.601562 39.699219 C 103.601562 42.800781 103.601562 46 103.601562 49.101562 C 103.601562 50 103.601562 50 102.699219 50.101562 C 100.101562 50.300781 97.398438 50.398438 94.800781 50.601562 C 94.601562 50.601562 94.300781 50.5 94.199219 50.398438 C 94.101562 50.101562 94.199219 49.800781 94.601562 49.699219 C 97.5 48.699219 98.898438 46.601562 99.5 43.699219 C 100 41.199219 100.101562 38.601562 100.101562 36 C 100.101562 29.5 100.101562 23 100.101562 16.601562 C 100.101562 14.699219 100 12.800781 99.699219 11 C 99.300781 8.300781 97.898438 6.199219 95.199219 5.199219 C 94.601562 4.898438 94.101562 4.699219 94 4 C 94 3.898438 94 3.800781 94 3.699219 Z M 94 3.699219 "/>
<path style=" stroke:none;fill-rule:nonzero;fill:rgb(7.843137%,11.372549%,21.960784%);fill-opacity:1;" d="M 53.5 38.101562 C 53.601562 36.898438 53.601562 35.699219 53.699219 34.601562 C 53.800781 33.300781 53.898438 32.101562 53.898438 30.800781 C 53.898438 30.199219 54.101562 30 54.699219 30 C 59.5 30 64.199219 30.101562 69 30.101562 C 75.800781 30.101562 82.5 30.101562 89.300781 30.199219 C 90 30.199219 90.699219 30.199219 91.398438 30.101562 C 91.898438 30.101562 92 30.199219 92 30.699219 C 92 34.199219 92 37.699219 92.101562 41.199219 C 92.101562 44 92.199219 46.800781 92.300781 49.601562 C 92.300781 49.699219 92.300781 49.898438 92.300781 50.101562 C 92 50.101562 91.800781 50.101562 91.5 50.101562 C 89.601562 50 87.800781 50 85.898438 49.898438 C 85 49.898438 84.199219 49.800781 83.300781 49.800781 C 83 49.800781 82.699219 49.800781 82.800781 49.398438 C 82.800781 49 82.898438 48.699219 83.398438 48.800781 C 84.601562 48.898438 85.601562 48.5 86.699219 48.101562 C 88.5 47.300781 89.300781 45.800781 89.398438 44 C 89.601562 40.699219 89.5 37.398438 89.601562 34.101562 C 89.601562 33.601562 89.5 33.398438 88.898438 33.398438 C 79.898438 33.398438 70.800781 33.398438 61.800781 33.5 C 59.800781 33.5 57.800781 33.898438 56.101562 35.199219 C 55.300781 35.800781 54.800781 36.601562 54.398438 37.5 C 54.398438 37.601562 54.300781 37.699219 54.300781 37.800781 C 54.398438 38.199219 54.300781 38.199219 53.5 38.101562 Z M 53.5 38.101562 "/>
<path style=" stroke:none;fill-rule:nonzero;fill:rgb(7.843137%,11.372549%,21.960784%);fill-opacity:1;" d="M 82.800781 7.199219 C 84 7.300781 85.199219 7.398438 86.398438 7.5 C 88 7.601562 89.699219 7.800781 91.300781 7.898438 C 92.300781 8 92.300781 8 92.300781 9 C 92.199219 14.699219 92.101562 20.398438 92 26.199219 C 92 26.398438 92 26.601562 92 26.898438 C 92.101562 27.398438 91.800781 27.5 91.398438 27.5 C 88.800781 27.5 86.300781 27.5 83.699219 27.398438 C 74.101562 27.398438 64.5 27.300781 54.898438 27.300781 C 53.800781 27.300781 53.898438 27.398438 53.898438 26.300781 C 53.800781 24.398438 53.800781 22.5 53.699219 20.601562 C 53.699219 20.300781 53.699219 19.898438 53.699219 19.5 C 54.300781 19.601562 54.5 19.699219 54.601562 20.300781 C 55 22.300781 56.5 23.398438 58.300781 23.800781 C 59.800781 24.199219 61.300781 24.398438 62.800781 24.398438 C 68.5 24.5 74.199219 24.5 79.898438 24.5 C 82.898438 24.5 85.898438 24.601562 88.898438 24.601562 C 89.300781 24.601562 89.398438 24.398438 89.5 24.101562 C 89.5 23.800781 89.601562 23.5 89.601562 23.199219 C 89.601562 20.5 89.5 17.898438 89.601562 15.199219 C 89.699219 11.300781 88 9.699219 84.800781 8.699219 C 84.300781 8.5 83.699219 8.398438 83.199219 8.199219 C 82.5 8.101562 82.800781 7.699219 82.800781 7.199219 Z M 82.800781 7.199219 "/>
<path style=" stroke:none;fill-rule:nonzero;fill:rgb(7.843137%,11.372549%,21.960784%);fill-opacity:1;" d="M 41.398438 11.199219 C 41.300781 11.398438 41.199219 11.601562 41.101562 11.800781 C 39.898438 13.398438 39.101562 15.101562 38.398438 17 C 36.699219 21.800781 36.5 26.699219 36.898438 31.800781 C 37.199219 35.199219 38 38.5 39.5 41.5 C 40.101562 42.800781 41.101562 43.898438 41.800781 45.101562 C 42 45.300781 42.101562 45.601562 42.199219 45.800781 C 42.199219 45.800781 42.101562 45.898438 42.101562 45.898438 C 41.898438 45.800781 41.699219 45.800781 41.5 45.699219 C 40.398438 44.800781 39.199219 43.898438 38.199219 42.898438 C 36 40.699219 34.800781 38 33.898438 35.101562 C 33.101562 32.5 32.800781 29.800781 32.898438 27.101562 C 32.898438 23.5 33.898438 20.101562 35.5 16.898438 C 36.699219 14.398438 38.601562 12.601562 41 11.199219 C 41.101562 11.199219 41.101562 11.101562 41.199219 11.101562 C 41.300781 11.101562 41.398438 11.101562 41.398438 11.199219 Z M 41.398438 11.199219 "/>
<path style=" stroke:none;fill-rule:nonzero;fill:rgb(7.843137%,11.372549%,21.960784%);fill-opacity:1;" d="M 138.601562 11.199219 C 138.699219 11.398438 138.800781 11.601562 138.898438 11.800781 C 140.101562 13.398438 140.898438 15.101562 141.601562 17 C 143.300781 21.800781 143.5 26.699219 143.101562 31.800781 C 142.800781 35.199219 142 38.5 140.5 41.5 C 139.898438 42.800781 138.898438 43.898438 138.199219 45.101562 C 138 45.300781 137.898438 45.601562 137.800781 45.800781 C 137.800781 45.800781 137.898438 45.898438 137.898438 45.898438 C 138.101562 45.800781 138.300781 45.800781 138.5 45.699219 C 139.601562 44.800781 140.800781 43.898438 141.800781 42.898438 C 144 40.699219 145.199219 38 146.101562 35.101562 C 146.898438 32.5 147.199219 29.800781 147.101562 27.101562 C 147.101562 23.5 146.101562 20.101562 144.5 16.898438 C 143.300781 14.398438 141.398438 12.601562 139 11.199219 C 138.898438 11.199219 138.898438 11.101562 138.800781 11.101562 C 138.699219 11.101562 138.601562 11.101562 138.601562 11.199219 Z M 138.601562 11.199219 "/>
</g>
</svg>
