<?xml version="1.0" encoding="UTF-8"?>
<svg xmlns="http://www.w3.org/2000/svg" xmlns:xlink="http://www.w3.org/1999/xlink" width="180px" height="60px" viewBox="0 0 180 60" version="1.1">
<g id="surface1">
<path style=" stroke:none;fill-rule:nonzero;fill:rgb(7.843137%,11.372549%,21.960784%);fill-opacity:1;" d="M 106.898438 29.453125 C 106.800781 21.492188 106.800781 13.636719 106.699219 5.671875 C 106.699219 5.128906 106.800781 4.691406 107.398438 4.691406 C 111.800781 4.472656 116.101562 4.035156 120.5 4.035156 C 126.601562 4.035156 131.699219 6.65625 135.601562 11.890625 C 137.398438 14.289062 138.5 17.238281 139.300781 20.183594 C 140.398438 24.761719 140.5 29.5625 140 34.253906 C 139.5 39.710938 137.898438 44.835938 134.300781 48.871094 C 132 51.492188 129.199219 53.238281 126 54.21875 C 122.601562 55.199219 119.199219 55.199219 115.699219 54.980469 C 113.199219 54.761719 110.800781 54.65625 108.300781 54.546875 C 107.101562 54.546875 107 54.4375 107 53.128906 C 107 46.035156 106.898438 39.054688 106.898438 31.964844 C 106.898438 31.199219 106.898438 30.328125 106.898438 29.453125 Z M 110.199219 25.746094 C 110.300781 31.964844 110.101562 38.289062 110.699219 44.507812 C 110.898438 46.253906 111.101562 48 111.398438 49.636719 C 111.5 50.289062 111.898438 50.726562 112.5 50.945312 C 113 51.054688 113.398438 51.164062 113.898438 51.273438 C 117.398438 52.035156 120.898438 52.035156 124.300781 51.164062 C 128.199219 50.183594 131.300781 47.78125 133.5 44.074219 C 135.398438 40.800781 136.101562 37.199219 136.398438 33.492188 C 136.699219 29.890625 136.601562 26.289062 135.898438 22.691406 C 135.199219 19.089844 133.800781 15.816406 131.601562 12.980469 C 129.300781 10.144531 126.398438 8.617188 123.101562 8.074219 C 120.699219 7.636719 118.199219 7.855469 115.800781 7.855469 C 114.300781 7.855469 112.800781 8.289062 111.5 9.054688 C 111.101562 9.273438 110.898438 9.601562 110.800781 10.144531 C 110.699219 11.019531 110.601562 12 110.601562 12.871094 C 110.398438 17.019531 110.300781 21.382812 110.199219 25.746094 Z M 110.199219 25.746094 "/>
<path style=" stroke:none;fill-rule:nonzero;fill:rgb(7.843137%,11.372549%,21.960784%);fill-opacity:1;" d="M 77.199219 21.492188 C 76.699219 19.964844 76.398438 18.4375 75.800781 17.019531 C 74.898438 14.726562 73.699219 12.65625 71.898438 11.019531 C 69.699219 9.164062 67.199219 8.074219 64.5 7.855469 C 62.101562 7.636719 59.699219 7.636719 57.300781 8.289062 C 53.5 9.273438 50.398438 11.34375 48 14.617188 C 46.300781 16.910156 45.300781 19.527344 44.601562 22.363281 C 43.800781 26.074219 43.800781 29.78125 44 33.601562 C 44.199219 36.4375 44.800781 39.054688 45.800781 41.5625 C 47.300781 45.164062 49.398438 48 52.601562 49.964844 C 54.601562 51.164062 56.699219 51.816406 59 52.144531 C 61.300781 52.363281 63.601562 52.472656 65.800781 52.035156 C 70.199219 51.164062 74 49.199219 77.199219 45.710938 C 77.398438 45.492188 77.699219 45.164062 77.898438 44.945312 C 78.101562 44.835938 78.5 44.835938 78.800781 44.835938 C 78.800781 45.054688 78.699219 45.273438 78.699219 45.601562 C 78.398438 47.019531 78.101562 48.546875 77.800781 49.964844 C 77.699219 50.507812 77.601562 51.054688 77.5 51.601562 C 77.398438 52.363281 76.898438 52.910156 76.199219 53.128906 C 73.898438 53.890625 71.601562 54.546875 69.300781 55.199219 C 66.800781 55.964844 64.300781 56.183594 61.699219 56.074219 C 60.101562 55.964844 58.398438 55.746094 56.800781 55.417969 C 54 54.871094 51.398438 53.671875 49.101562 51.925781 C 45.398438 49.308594 43 45.492188 41.601562 40.910156 C 40.300781 36.546875 39.898438 32.183594 40.199219 27.601562 C 40.5 22.910156 41.398438 18.4375 43.800781 14.507812 C 45.300781 11.890625 47.398438 9.925781 49.699219 8.183594 C 51.199219 7.089844 52.898438 6.328125 54.699219 5.671875 C 60 3.601562 65.300781 3.816406 70.699219 5.019531 C 72.800781 5.453125 74.800781 6 76.898438 6.65625 C 78.398438 7.089844 78.398438 7.199219 78.398438 8.835938 C 78.398438 10.691406 78.398438 12.65625 78.398438 14.507812 C 78.300781 14.507812 78.5 14.507812 78.398438 14.507812 C 78.398438 16.800781 78.199219 19.089844 78.199219 21.382812 "/>
<path style=" stroke:none;fill-rule:nonzero;fill:rgb(7.843137%,11.372549%,21.960784%);fill-opacity:1;" d="M 94 4.035156 C 94.199219 4.035156 94.398438 4.035156 94.699219 4.035156 C 97.398438 4.253906 100 4.472656 102.699219 4.691406 C 103.5 4.800781 103.5 4.800781 103.5 5.671875 C 103.5 18.21875 103.601562 30.761719 103.601562 43.308594 C 103.601562 46.691406 103.601562 50.183594 103.601562 53.5625 C 103.601562 54.546875 103.601562 54.546875 102.699219 54.65625 C 100.101562 54.871094 97.398438 54.980469 94.800781 55.199219 C 94.601562 55.199219 94.300781 55.089844 94.199219 54.980469 C 94.101562 54.65625 94.199219 54.328125 94.601562 54.21875 C 97.5 53.128906 98.898438 50.835938 99.5 47.671875 C 100 44.945312 100.101562 42.109375 100.101562 39.273438 C 100.101562 32.183594 100.101562 25.089844 100.101562 18.109375 C 100.101562 16.035156 100 13.964844 99.699219 12 C 99.300781 9.054688 97.898438 6.761719 95.199219 5.671875 C 94.601562 5.34375 94.101562 5.128906 94 4.363281 C 94 4.253906 94 4.144531 94 4.035156 Z M 94 4.035156 "/>
<path style=" stroke:none;fill-rule:nonzero;fill:rgb(7.843137%,11.372549%,21.960784%);fill-opacity:1;" d="M 53.5 41.5625 C 53.601562 40.253906 53.601562 38.945312 53.699219 37.746094 C 53.800781 36.328125 53.898438 35.019531 53.898438 33.601562 C 53.898438 32.945312 54.101562 32.726562 54.699219 32.726562 C 59.5 32.726562 64.199219 32.835938 69 32.835938 C 75.800781 32.835938 82.5 32.835938 89.300781 32.945312 C 90 32.945312 90.699219 32.945312 91.398438 32.835938 C 91.898438 32.835938 92 32.945312 92 33.492188 C 92 37.308594 92 41.128906 92.101562 44.945312 C 92.101562 48 92.199219 51.054688 92.300781 54.109375 C 92.300781 54.21875 92.300781 54.4375 92.300781 54.65625 C 92 54.65625 91.800781 54.65625 91.5 54.65625 C 89.601562 54.546875 87.800781 54.546875 85.898438 54.4375 C 85 54.4375 84.199219 54.328125 83.300781 54.328125 C 83 54.328125 82.699219 54.328125 82.800781 53.890625 C 82.800781 53.453125 82.898438 53.128906 83.398438 53.238281 C 84.601562 53.34375 85.601562 52.910156 86.699219 52.472656 C 88.5 51.601562 89.300781 49.964844 89.398438 48 C 89.601562 44.398438 89.5 40.800781 89.601562 37.199219 C 89.601562 36.65625 89.5 36.4375 88.898438 36.4375 C 79.898438 36.4375 70.800781 36.4375 61.800781 36.546875 C 59.800781 36.546875 57.800781 36.980469 56.101562 38.398438 C 55.300781 39.054688 54.800781 39.925781 54.398438 40.910156 C 54.398438 41.019531 54.300781 41.128906 54.300781 41.238281 C 54.398438 41.671875 54.300781 41.671875 53.5 41.5625 Z M 53.5 41.5625 "/>
<path style=" stroke:none;fill-rule:nonzero;fill:rgb(7.843137%,11.372549%,21.960784%);fill-opacity:1;" d="M 82.800781 7.855469 C 84 7.964844 85.199219 8.074219 86.398438 8.183594 C 88 8.289062 89.699219 8.507812 91.300781 8.617188 C 92.300781 8.726562 92.300781 8.726562 92.300781 9.816406 C 92.199219 16.035156 92.101562 22.253906 92 28.582031 C 92 28.800781 92 29.019531 92 29.34375 C 92.101562 29.890625 91.800781 30 91.398438 30 C 88.800781 30 86.300781 30 83.699219 29.890625 C 74.101562 29.890625 64.5 29.78125 54.898438 29.78125 C 53.800781 29.78125 53.898438 29.890625 53.898438 28.691406 C 53.800781 26.617188 53.800781 24.546875 53.699219 22.472656 C 53.699219 22.144531 53.699219 21.710938 53.699219 21.273438 C 54.300781 21.382812 54.5 21.492188 54.601562 22.144531 C 55 24.328125 56.5 25.527344 58.300781 25.964844 C 59.800781 26.398438 61.300781 26.617188 62.800781 26.617188 C 68.5 26.726562 74.199219 26.726562 79.898438 26.726562 C 82.898438 26.726562 85.898438 26.835938 88.898438 26.835938 C 89.300781 26.835938 89.398438 26.617188 89.5 26.289062 C 89.5 25.964844 89.601562 25.636719 89.601562 25.308594 C 89.601562 22.363281 89.5 19.527344 89.601562 16.582031 C 89.699219 12.328125 88 10.582031 84.800781 9.492188 C 84.300781 9.273438 83.699219 9.164062 83.199219 8.945312 C 82.5 8.835938 82.800781 8.398438 82.800781 7.855469 Z M 82.800781 7.855469 "/>
<path style=" stroke:none;fill-rule:nonzero;fill:rgb(7.843137%,11.372549%,21.960784%);fill-opacity:1;" d="M 41.398438 12.21875 C 41.300781 12.4375 41.199219 12.65625 41.101562 12.871094 C 39.898438 14.617188 39.101562 16.472656 38.398438 18.546875 C 36.699219 23.78125 36.5 29.128906 36.898438 34.691406 C 37.199219 38.398438 38 42 39.5 45.273438 C 40.101562 46.691406 41.101562 47.890625 41.800781 49.199219 C 42 49.417969 42.101562 49.746094 42.199219 49.964844 C 42.199219 49.964844 42.101562 50.074219 42.101562 50.074219 C 41.898438 49.964844 41.699219 49.964844 41.5 49.855469 C 40.398438 48.871094 39.199219 47.890625 38.199219 46.800781 C 36 44.398438 34.800781 41.453125 33.898438 38.289062 C 33.101562 35.453125 32.800781 32.507812 32.898438 29.5625 C 32.898438 25.636719 33.898438 21.925781 35.5 18.4375 C 36.699219 15.710938 38.601562 13.746094 41 12.21875 C 41.101562 12.21875 41.101562 12.109375 41.199219 12.109375 C 41.300781 12.109375 41.398438 12.109375 41.398438 12.21875 Z M 41.398438 12.21875 "/>
<path style=" stroke:none;fill-rule:nonzero;fill:rgb(7.843137%,11.372549%,21.960784%);fill-opacity:1;" d="M 138.601562 12.21875 C 138.699219 12.4375 138.800781 12.65625 138.898438 12.871094 C 140.101562 14.617188 140.898438 16.472656 141.601562 18.546875 C 143.300781 23.78125 143.5 29.128906 143.101562 34.691406 C 142.800781 38.398438 142 42 140.5 45.273438 C 139.898438 46.691406 138.898438 47.890625 138.199219 49.199219 C 138 49.417969 137.898438 49.746094 137.800781 49.964844 C 137.800781 49.964844 137.898438 50.074219 137.898438 50.074219 C 138.101562 49.964844 138.300781 49.964844 138.5 49.855469 C 139.601562 48.871094 140.800781 47.890625 141.800781 46.800781 C 144 44.398438 145.199219 41.453125 146.101562 38.289062 C 146.898438 35.453125 147.199219 32.507812 147.101562 29.5625 C 147.101562 25.636719 146.101562 21.925781 144.5 18.4375 C 143.300781 15.710938 141.398438 13.746094 139 12.21875 C 138.898438 12.21875 138.898438 12.109375 138.800781 12.109375 C 138.699219 12.109375 138.601562 12.109375 138.601562 12.21875 Z M 138.601562 12.21875 "/>
</g>
</svg>
